<svg width="450" height="300" xmlns="http://www.w3.org/2000/svg" version="1.1" xml:space="preserve">
 <g>
   <path d="m203.45331,244.84504l0,-26.39168l62.51758,0l0,13.01448l8.33455,-8.66933l4.17805,-4.34515l3.98533,-4.14486l-3.89741,-4.1926l-4.26538,0l0,-4.58793l-8.33455,-8.9651l0,13.55303l-62.51816,0l0,-27.37098l49.67486,0l-7.74825,-8.33339l-41.92719,0l0,-28.89699l34.1737,0c2.6532,-4.24675 6.89646,-7.20387 11.73009,-8.33455l-45.90029,0l0,-31.25733l62.51816,0l0,30.71528l8.3328,0l0,-30.71528l64.13092,0l0,30.71528l8.3328,0l0,-105.96205c0,-5.36113 -4.36087,-9.72199 -9.7185,-9.72199l-240.79488,0c-5.36346,0 -9.72141,4.36436 -9.72141,9.72199l0,213.01343c0,3.28724 1.65294,6.19313 4.16582,7.95494l0,1.533l3.48636,0c0.66898,0.1473 1.35717,0.23173 2.06923,0.23173l148.6141,0l8.23732,-8.56395l-49.65564,0l-0.00001,0zm70.85213,-215.55368l62.73999,0c0.76621,0 1.39443,0.62415 1.39443,1.39094l0,28.01725l-64.13442,0l0,-29.40819zm0,37.74041l64.13383,0l0,30.56332l-64.13383,0l0,-30.56332zm-70.85213,-37.74041l62.51758,0l0,29.4076l-62.51758,0l0,-29.4076zm0,37.74041l62.51758,0l0,30.56332l-62.51758,0l0,-30.56332zm-78.48743,177.81327l-29.42973,0c-0.39184,-0.24162 -0.66898,-0.65791 -0.66898,-1.15572l0,-25.23596l30.09929,0l0,26.39168l-0.00058,0zm0,-34.72972l-30.09871,0l0,-27.36691l30.09929,0l0,27.36691l-0.00058,0zm0,-35.69855l-30.09871,0l0,-28.89466l30.09929,0l0,28.89466l-0.00058,0zm0,-37.23038l-30.09871,0l0,-31.25733l30.09929,0l0,31.25733l-0.00058,0zm0,-39.5913l-30.09871,0l0,-30.56332l30.09929,0l0,30.56332l-0.00058,0zm70.15113,147.24995l-61.81774,0l0,-26.39168l61.81774,0l0,26.39168zm0,-34.72972l-61.81774,0l0,-27.36691l61.81774,0l0,27.36691zm0,-35.69855l-61.81774,0l0,-28.89466l61.81774,0l0,28.89466zm0,-37.23038l-61.81774,0l0,-31.25733l61.81774,0l0,31.25733zm0,-39.5913l-61.81774,0l0,-30.56332l61.81774,0l0,30.56332zm0,-38.89904l-61.81774,0l0,-29.40819l61.81774,0l0,29.40819zm153.37903,115.61534l0,-11.28119l-73.31494,0l43.14462,46.39751c2.69978,2.90414 2.65611,7.4222 -0.08209,10.28442l-42.66021,44.36613l72.91262,0l0,-6.81029c0,-4.1303 3.35187,-7.48858 7.48101,-7.48858s7.48625,3.35886 7.48625,7.48858l0,14.29712c0,4.12623 -3.35769,7.48101 -7.48625,7.48101l-97.97683,0c-3.00137,0 -5.7093,-1.78277 -6.88365,-4.54951c-1.17668,-2.76848 -0.60027,-5.95674 1.4905,-8.12379l49.92754,-51.9304l-50.01721,-53.79701c-2.02556,-2.17927 -2.56645,-5.35531 -1.3758,-8.09002c1.19123,-2.72947 3.87704,-4.49536 6.85919,-4.49536l97.97683,0c4.12914,0 7.48625,3.35827 7.48625,7.48392l0,18.76511c0,4.13205 -3.35769,7.48625 -7.48625,7.48625s-7.48159,-3.35478 -7.48159,-7.48392l0.00001,0.00002z" id="svg_2"/>
 </g>

</svg>